  0
SECTION
  2
HEADER
  9
$ACADVER
  1
AC1009
  9
$EXTMIN
 10
0.0
 20
0.0
 30
0.0
  9
$EXTMAX
 10
1000.0
 20
1000.0
 30
0.0
  9
$FILLMODE
 70
 0
  9
$SPLFRAME
 70
 1
  0
ENDSEC
  0
SECTION
  2
TABLES
  0
TABLE
  2
LAYER
 70
1
  0
LAYER
  2
0
 70
     0
 62
     7
  6
CONTINUOUS
  0
ENDTAB
  0
ENDSEC
  0
SECTION
  2
ENTITIES
  0
LINE
  8
0
 62
     0
 10
293.846
 20
124.435
 30
0.0
 11
294.003
 21
124.429
 31
0.0
  0
LINE
  8
0
 62
     0
 10
294.003
 20
124.429
 30
0.0
 11
294.159
 21
124.411
 31
0.0
  0
LINE
  8
0
 62
     0
 10
294.159
 20
124.411
 30
0.0
 11
294.313
 21
124.38
 31
0.0
  0
LINE
  8
0
 62
     0
 10
294.313
 20
124.38
 30
0.0
 11
294.465
 21
124.338
 31
0.0
  0
LINE
  8
0
 62
     0
 10
294.465
 20
124.338
 30
0.0
 11
294.612
 21
124.283
 31
0.0
  0
LINE
  8
0
 62
     0
 10
294.612
 20
124.283
 30
0.0
 11
294.754
 21
124.218
 31
0.0
  0
LINE
  8
0
 62
     0
 10
294.754
 20
124.218
 30
0.0
 11
294.89
 21
124.141
 31
0.0
  0
LINE
  8
0
 62
     0
 10
294.89
 20
124.141
 30
0.0
 11
295.021
 21
124.054
 31
0.0
  0
LINE
  8
0
 62
     0
 10
295.021
 20
124.054
 30
0.0
 11
295.144
 21
123.956
 31
0.0
  0
LINE
  8
0
 62
     0
 10
295.144
 20
123.956
 30
0.0
 11
295.26
 21
123.85
 31
0.0
  0
LINE
  8
0
 62
     0
 10
295.26
 20
123.85
 30
0.0
 11
295.366
 21
123.734
 31
0.0
  0
LINE
  8
0
 62
     0
 10
295.366
 20
123.734
 30
0.0
 11
295.465
 21
123.612
 31
0.0
  0
LINE
  8
0
 62
     0
 10
295.465
 20
123.612
 30
0.0
 11
295.552
 21
123.48
 31
0.0
  0
LINE
  8
0
 62
     0
 10
295.552
 20
123.48
 30
0.0
 11
295.629
 21
123.343
 31
0.0
  0
LINE
  8
0
 62
     0
 10
295.629
 20
123.343
 30
0.0
 11
295.694
 21
123.201
 31
0.0
  0
LINE
  8
0
 62
     0
 10
295.694
 20
123.201
 30
0.0
 11
295.749
 21
123.055
 31
0.0
  0
LINE
  8
0
 62
     0
 10
295.749
 20
123.055
 30
0.0
 11
295.79
 21
122.902
 31
0.0
  0
LINE
  8
0
 62
     0
 10
295.79
 20
122.902
 30
0.0
 11
295.822
 21
122.749
 31
0.0
  0
LINE
  8
0
 62
     0
 10
295.822
 20
122.749
 30
0.0
 11
295.84
 21
122.592
 31
0.0
  0
LINE
  8
0
 62
     0
 10
295.84
 20
122.592
 30
0.0
 11
295.847
 21
122.435
 31
0.0
  0
LINE
  8
0
 62
     0
 10
295.847
 20
122.435
 30
0.0
 11
295.847
 21
2.13458
 31
0.0
  0
LINE
  8
0
 62
     0
 10
295.847
 20
2.13458
 30
0.0
 11
295.84
 21
1.97749
 31
0.0
  0
LINE
  8
0
 62
     0
 10
295.84
 20
1.97749
 30
0.0
 11
295.822
 21
1.82177
 31
0.0
  0
LINE
  8
0
 62
     0
 10
295.822
 20
1.82177
 30
0.0
 11
295.79
 21
1.66743
 31
0.0
  0
LINE
  8
0
 62
     0
 10
295.79
 20
1.66743
 30
0.0
 11
295.749
 21
1.51584
 31
0.0
  0
LINE
  8
0
 62
     0
 10
295.749
 20
1.51584
 30
0.0
 11
295.694
 21
1.36839
 31
0.0
  0
LINE
  8
0
 62
     0
 10
295.694
 20
1.36839
 30
0.0
 11
295.629
 21
1.22645
 31
0.0
  0
LINE
  8
0
 62
     0
 10
295.629
 20
1.22645
 30
0.0
 11
295.552
 21
1.09003
 31
0.0
  0
LINE
  8
0
 62
     0
 10
295.552
 20
1.09003
 30
0.0
 11
295.465
 21
0.959115
 31
0.0
  0
LINE
  8
0
 62
     0
 10
295.465
 20
0.959115
 30
0.0
 11
295.366
 21
0.836468
 31
0.0
  0
LINE
  8
0
 62
     0
 10
295.366
 20
0.836468
 30
0.0
 11
295.26
 21
0.720714
 31
0.0
  0
LINE
  8
0
 62
     0
 10
295.26
 20
0.720714
 30
0.0
 11
295.144
 21
0.614606
 31
0.0
  0
LINE
  8
0
 62
     0
 10
295.144
 20
0.614606
 30
0.0
 11
295.021
 21
0.515387
 31
0.0
  0
LINE
  8
0
 62
     0
 10
295.021
 20
0.515387
 30
0.0
 11
294.89
 21
0.428569
 31
0.0
  0
LINE
  8
0
 62
     0
 10
294.89
 20
0.428569
 30
0.0
 11
294.754
 21
0.3514
 31
0.0
  0
LINE
  8
0
 62
     0
 10
294.754
 20
0.3514
 30
0.0
 11
294.612
 21
0.286632
 31
0.0
  0
LINE
  8
0
 62
     0
 10
294.612
 20
0.286632
 30
0.0
 11
294.465
 21
0.23151
 31
0.0
  0
LINE
  8
0
 62
     0
 10
294.465
 20
0.23151
 30
0.0
 11
294.313
 21
0.190169
 31
0.0
  0
LINE
  8
0
 62
     0
 10
294.313
 20
0.190169
 30
0.0
 11
294.159
 21
0.158474
 31
0.0
  0
LINE
  8
0
 62
     0
 10
294.159
 20
0.158474
 30
0.0
 11
294.003
 21
0.14056
 31
0.0
  0
LINE
  8
0
 62
     0
 10
294.003
 20
0.14056
 30
0.0
 11
293.846
 21
0.135048
 31
0.0
  0
LINE
  8
0
 62
     0
 10
293.846
 20
0.135048
 30
0.0
 11
2.096
 21
0.135048
 31
0.0
  0
LINE
  8
0
 62
     0
 10
2.096
 20
0.135048
 30
0.0
 11
1.9389
 21
0.14056
 31
0.0
  0
LINE
  8
0
 62
     0
 10
1.9389
 20
0.14056
 30
0.0
 11
1.7818
 21
0.158474
 31
0.0
  0
LINE
  8
0
 62
     0
 10
1.7818
 20
0.158474
 30
0.0
 11
1.62884
 21
0.190169
 31
0.0
  0
LINE
  8
0
 62
     0
 10
1.62884
 20
0.190169
 30
0.0
 11
1.47588
 21
0.23151
 31
0.0
  0
LINE
  8
0
 62
     0
 10
1.47588
 20
0.23151
 30
0.0
 11
1.32981
 21
0.286632
 31
0.0
  0
LINE
  8
0
 62
     0
 10
1.32981
 20
0.286632
 30
0.0
 11
1.18787
 21
0.3514
 31
0.0
  0
LINE
  8
0
 62
     0
 10
1.18787
 20
0.3514
 30
0.0
 11
1.05006
 21
0.428569
 31
0.0
  0
LINE
  8
0
 62
     0
 10
1.05006
 20
0.428569
 30
0.0
 11
0.919152
 21
0.515387
 31
0.0
  0
LINE
  8
0
 62
     0
 10
0.919152
 20
0.515387
 30
0.0
 11
0.796505
 21
0.614606
 31
0.0
  0
LINE
  8
0
 62
     0
 10
0.796505
 20
0.614606
 30
0.0
 11
0.680752
 21
0.720714
 31
0.0
  0
LINE
  8
0
 62
     0
 10
0.680752
 20
0.720714
 30
0.0
 11
0.574643
 21
0.836468
 31
0.0
  0
LINE
  8
0
 62
     0
 10
0.574643
 20
0.836468
 30
0.0
 11
0.4768
 21
0.959115
 31
0.0
  0
LINE
  8
0
 62
     0
 10
0.4768
 20
0.959115
 30
0.0
 11
0.389985
 21
1.09003
 31
0.0
  0
LINE
  8
0
 62
     0
 10
0.389985
 20
1.09003
 30
0.0
 11
0.312815
 21
1.22645
 31
0.0
  0
LINE
  8
0
 62
     0
 10
0.312815
 20
1.22645
 30
0.0
 11
0.248047
 21
1.36839
 31
0.0
  0
LINE
  8
0
 62
     0
 10
0.248047
 20
1.36839
 30
0.0
 11
0.192925
 21
1.51584
 31
0.0
  0
LINE
  8
0
 62
     0
 10
0.192925
 20
1.51584
 30
0.0
 11
0.150206
 21
1.66743
 31
0.0
  0
LINE
  8
0
 62
     0
 10
0.150206
 20
1.66743
 30
0.0
 11
0.119889
 21
1.82177
 31
0.0
  0
LINE
  8
0
 62
     0
 10
0.119889
 20
1.82177
 30
0.0
 11
0.101975
 21
1.97749
 31
0.0
  0
LINE
  8
0
 62
     0
 10
0.101975
 20
1.97749
 30
0.0
 11
0.0950846
 21
2.13458
 31
0.0
  0
LINE
  8
0
 62
     0
 10
0.0950846
 20
2.13458
 30
0.0
 11
0.0950846
 21
122.435
 31
0.0
  0
LINE
  8
0
 62
     0
 10
0.0950846
 20
122.435
 30
0.0
 11
0.101975
 21
122.592
 31
0.0
  0
LINE
  8
0
 62
     0
 10
0.101975
 20
122.592
 30
0.0
 11
0.119889
 21
122.749
 31
0.0
  0
LINE
  8
0
 62
     0
 10
0.119889
 20
122.749
 30
0.0
 11
0.150206
 21
122.902
 31
0.0
  0
LINE
  8
0
 62
     0
 10
0.150206
 20
122.902
 30
0.0
 11
0.192925
 21
123.055
 31
0.0
  0
LINE
  8
0
 62
     0
 10
0.192925
 20
123.055
 30
0.0
 11
0.248047
 21
123.201
 31
0.0
  0
LINE
  8
0
 62
     0
 10
0.248047
 20
123.201
 30
0.0
 11
0.312815
 21
123.343
 31
0.0
  0
LINE
  8
0
 62
     0
 10
0.312815
 20
123.343
 30
0.0
 11
0.389985
 21
123.48
 31
0.0
  0
LINE
  8
0
 62
     0
 10
0.389985
 20
123.48
 30
0.0
 11
0.4768
 21
123.612
 31
0.0
  0
LINE
  8
0
 62
     0
 10
0.4768
 20
123.612
 30
0.0
 11
0.574643
 21
123.734
 31
0.0
  0
LINE
  8
0
 62
     0
 10
0.574643
 20
123.734
 30
0.0
 11
0.680752
 21
123.85
 31
0.0
  0
LINE
  8
0
 62
     0
 10
0.680752
 20
123.85
 30
0.0
 11
0.796505
 21
123.956
 31
0.0
  0
LINE
  8
0
 62
     0
 10
0.796505
 20
123.956
 30
0.0
 11
0.919152
 21
124.054
 31
0.0
  0
LINE
  8
0
 62
     0
 10
0.919152
 20
124.054
 30
0.0
 11
1.05006
 21
124.141
 31
0.0
  0
LINE
  8
0
 62
     0
 10
1.05006
 20
124.141
 30
0.0
 11
1.18787
 21
124.218
 31
0.0
  0
LINE
  8
0
 62
     0
 10
1.18787
 20
124.218
 30
0.0
 11
1.32981
 21
124.283
 31
0.0
  0
LINE
  8
0
 62
     0
 10
1.32981
 20
124.283
 30
0.0
 11
1.47588
 21
124.338
 31
0.0
  0
LINE
  8
0
 62
     0
 10
1.47588
 20
124.338
 30
0.0
 11
1.62884
 21
124.38
 31
0.0
  0
LINE
  8
0
 62
     0
 10
1.62884
 20
124.38
 30
0.0
 11
1.7818
 21
124.411
 31
0.0
  0
LINE
  8
0
 62
     0
 10
1.7818
 20
124.411
 30
0.0
 11
1.9389
 21
124.429
 31
0.0
  0
LINE
  8
0
 62
     0
 10
1.9389
 20
124.429
 30
0.0
 11
2.096
 21
124.435
 31
0.0
  0
LINE
  8
0
 62
     0
 10
2.096
 20
124.435
 30
0.0
 11
293.846
 21
124.435
 31
0.0
  0
LINE
  8
0
 62
     0
 10
126.683
 20
21.6614
 30
0.0
 11
126.683
 21
16.9595
 31
0.0
  0
LINE
  8
0
 62
     0
 10
126.683
 20
16.9595
 30
0.0
 11
118.007
 21
16.9595
 31
0.0
  0
LINE
  8
0
 62
     0
 10
118.007
 20
16.9595
 30
0.0
 11
118.007
 21
20.191
 31
0.0
  0
LINE
  8
0
 62
     0
 10
118.007
 20
20.191
 30
0.0
 11
116.283
 21
20.191
 31
0.0
  0
LINE
  8
0
 62
     0
 10
116.283
 20
20.191
 30
0.0
 11
116.283
 21
21.1116
 31
0.0
  0
LINE
  8
0
 62
     0
 10
116.283
 20
21.1116
 30
0.0
 11
112.983
 21
21.1116
 31
0.0
  0
LINE
  8
0
 62
     0
 10
112.983
 20
21.1116
 30
0.0
 11
112.983
 21
20.191
 31
0.0
  0
LINE
  8
0
 62
     0
 10
112.983
 20
20.191
 30
0.0
 11
111.257
 21
20.191
 31
0.0
  0
LINE
  8
0
 62
     0
 10
111.257
 20
20.191
 30
0.0
 11
111.257
 21
16.9595
 31
0.0
  0
LINE
  8
0
 62
     0
 10
111.257
 20
16.9595
 30
0.0
 11
110.432
 21
16.9595
 31
0.0
  0
LINE
  8
0
 62
     0
 10
110.432
 20
16.9595
 30
0.0
 11
110.432
 21
14.1607
 31
0.0
  0
LINE
  8
0
 62
     0
 10
110.432
 20
14.1607
 30
0.0
 11
111.257
 21
14.1607
 31
0.0
  0
LINE
  8
0
 62
     0
 10
111.257
 20
14.1607
 30
0.0
 11
111.257
 21
7.89065
 31
0.0
  0
LINE
  8
0
 62
     0
 10
111.257
 20
7.89065
 30
0.0
 11
112.983
 21
7.89065
 31
0.0
  0
LINE
  8
0
 62
     0
 10
112.983
 20
7.89065
 30
0.0
 11
112.983
 21
6.91085
 31
0.0
  0
LINE
  8
0
 62
     0
 10
112.983
 20
6.91085
 30
0.0
 11
116.283
 21
6.91085
 31
0.0
  0
LINE
  8
0
 62
     0
 10
116.283
 20
6.91085
 30
0.0
 11
116.283
 21
7.89065
 31
0.0
  0
LINE
  8
0
 62
     0
 10
116.283
 20
7.89065
 30
0.0
 11
118.007
 21
7.89065
 31
0.0
  0
LINE
  8
0
 62
     0
 10
118.007
 20
7.89065
 30
0.0
 11
118.007
 21
12.361
 31
0.0
  0
LINE
  8
0
 62
     0
 10
118.007
 20
12.361
 30
0.0
 11
126.683
 21
12.361
 31
0.0
  0
LINE
  8
0
 62
     0
 10
126.683
 20
12.361
 30
0.0
 11
126.683
 21
7.6605
 31
0.0
  0
LINE
  8
0
 62
     0
 10
126.683
 20
7.6605
 30
0.0
 11
140.682
 21
7.6605
 31
0.0
  0
LINE
  8
0
 62
     0
 10
140.682
 20
7.6605
 30
0.0
 11
140.682
 21
12.361
 31
0.0
  0
LINE
  8
0
 62
     0
 10
140.682
 20
12.361
 30
0.0
 11
149.357
 21
12.361
 31
0.0
  0
LINE
  8
0
 62
     0
 10
149.357
 20
12.361
 30
0.0
 11
149.357
 21
7.89065
 31
0.0
  0
LINE
  8
0
 62
     0
 10
149.357
 20
7.89065
 30
0.0
 11
151.083
 21
7.89065
 31
0.0
  0
LINE
  8
0
 62
     0
 10
151.083
 20
7.89065
 30
0.0
 11
151.083
 21
6.91085
 31
0.0
  0
LINE
  8
0
 62
     0
 10
151.083
 20
6.91085
 30
0.0
 11
154.383
 21
6.91085
 31
0.0
  0
LINE
  8
0
 62
     0
 10
154.383
 20
6.91085
 30
0.0
 11
154.383
 21
7.89065
 31
0.0
  0
LINE
  8
0
 62
     0
 10
154.383
 20
7.89065
 30
0.0
 11
156.107
 21
7.89065
 31
0.0
  0
LINE
  8
0
 62
     0
 10
156.107
 20
7.89065
 30
0.0
 11
156.107
 21
14.1607
 31
0.0
  0
LINE
  8
0
 62
     0
 10
156.107
 20
14.1607
 30
0.0
 11
156.932
 21
14.1607
 31
0.0
  0
LINE
  8
0
 62
     0
 10
156.932
 20
14.1607
 30
0.0
 11
156.932
 21
16.9595
 31
0.0
  0
LINE
  8
0
 62
     0
 10
156.932
 20
16.9595
 30
0.0
 11
156.107
 21
16.9595
 31
0.0
  0
LINE
  8
0
 62
     0
 10
156.107
 20
16.9595
 30
0.0
 11
156.107
 21
20.191
 31
0.0
  0
LINE
  8
0
 62
     0
 10
156.107
 20
20.191
 30
0.0
 11
154.383
 21
20.191
 31
0.0
  0
LINE
  8
0
 62
     0
 10
154.383
 20
20.191
 30
0.0
 11
154.383
 21
21.1116
 31
0.0
  0
LINE
  8
0
 62
     0
 10
154.383
 20
21.1116
 30
0.0
 11
151.083
 21
21.1116
 31
0.0
  0
LINE
  8
0
 62
     0
 10
151.083
 20
21.1116
 30
0.0
 11
151.083
 21
20.191
 31
0.0
  0
LINE
  8
0
 62
     0
 10
151.083
 20
20.191
 30
0.0
 11
149.357
 21
20.191
 31
0.0
  0
LINE
  8
0
 62
     0
 10
149.357
 20
20.191
 30
0.0
 11
149.357
 21
16.9595
 31
0.0
  0
LINE
  8
0
 62
     0
 10
149.357
 20
16.9595
 30
0.0
 11
140.682
 21
16.9595
 31
0.0
  0
LINE
  8
0
 62
     0
 10
140.682
 20
16.9595
 30
0.0
 11
140.682
 21
21.6614
 31
0.0
  0
LINE
  8
0
 62
     0
 10
140.682
 20
21.6614
 30
0.0
 11
126.683
 21
21.6614
 31
0.0
  0
LINE
  8
0
 62
     0
 10
267.177
 20
21.6614
 30
0.0
 11
281.176
 21
21.6614
 31
0.0
  0
LINE
  8
0
 62
     0
 10
281.176
 20
21.6614
 30
0.0
 11
281.176
 21
7.6605
 31
0.0
  0
LINE
  8
0
 62
     0
 10
281.176
 20
7.6605
 30
0.0
 11
267.177
 21
7.6605
 31
0.0
  0
LINE
  8
0
 62
     0
 10
267.177
 20
7.6605
 30
0.0
 11
267.177
 21
21.6614
 31
0.0
  0
LINE
  8
0
 62
     0
 10
238.602
 20
21.6614
 30
0.0
 11
252.6
 21
21.6614
 31
0.0
  0
LINE
  8
0
 62
     0
 10
252.6
 20
21.6614
 30
0.0
 11
252.6
 21
7.6605
 31
0.0
  0
LINE
  8
0
 62
     0
 10
252.6
 20
7.6605
 30
0.0
 11
238.602
 21
7.6605
 31
0.0
  0
LINE
  8
0
 62
     0
 10
238.602
 20
7.6605
 30
0.0
 11
238.602
 21
21.6614
 31
0.0
  0
LINE
  8
0
 62
     0
 10
214.788
 20
21.6614
 30
0.0
 11
228.789
 21
21.6614
 31
0.0
  0
LINE
  8
0
 62
     0
 10
228.789
 20
21.6614
 30
0.0
 11
228.789
 21
7.6605
 31
0.0
  0
LINE
  8
0
 62
     0
 10
228.789
 20
7.6605
 30
0.0
 11
214.788
 21
7.6605
 31
0.0
  0
LINE
  8
0
 62
     0
 10
214.788
 20
7.6605
 30
0.0
 11
214.788
 21
21.6614
 31
0.0
  0
LINE
  8
0
 62
     0
 10
190.977
 20
21.6614
 30
0.0
 11
204.976
 21
21.6614
 31
0.0
  0
LINE
  8
0
 62
     0
 10
204.976
 20
21.6614
 30
0.0
 11
204.976
 21
7.6605
 31
0.0
  0
LINE
  8
0
 62
     0
 10
204.976
 20
7.6605
 30
0.0
 11
190.977
 21
7.6605
 31
0.0
  0
LINE
  8
0
 62
     0
 10
190.977
 20
7.6605
 30
0.0
 11
190.977
 21
21.6614
 31
0.0
  0
LINE
  8
0
 62
     0
 10
167.163
 20
21.6614
 30
0.0
 11
181.164
 21
21.6614
 31
0.0
  0
LINE
  8
0
 62
     0
 10
181.164
 20
21.6614
 30
0.0
 11
181.164
 21
7.6605
 31
0.0
  0
LINE
  8
0
 62
     0
 10
181.164
 20
7.6605
 30
0.0
 11
167.163
 21
7.6605
 31
0.0
  0
LINE
  8
0
 62
     0
 10
167.163
 20
7.6605
 30
0.0
 11
167.163
 21
21.6614
 31
0.0
  0
LINE
  8
0
 62
     0
 10
86.202
 20
21.6614
 30
0.0
 11
100.201
 21
21.6614
 31
0.0
  0
LINE
  8
0
 62
     0
 10
100.201
 20
21.6614
 30
0.0
 11
100.201
 21
7.6605
 31
0.0
  0
LINE
  8
0
 62
     0
 10
100.201
 20
7.6605
 30
0.0
 11
86.202
 21
7.6605
 31
0.0
  0
LINE
  8
0
 62
     0
 10
86.202
 20
7.6605
 30
0.0
 11
86.202
 21
21.6614
 31
0.0
  0
LINE
  8
0
 62
     0
 10
62.388
 20
21.6614
 30
0.0
 11
76.3887
 21
21.6614
 31
0.0
  0
LINE
  8
0
 62
     0
 10
76.3887
 20
21.6614
 30
0.0
 11
76.3887
 21
7.6605
 31
0.0
  0
LINE
  8
0
 62
     0
 10
76.3887
 20
7.6605
 30
0.0
 11
62.388
 21
7.6605
 31
0.0
  0
LINE
  8
0
 62
     0
 10
62.388
 20
7.6605
 30
0.0
 11
62.388
 21
21.6614
 31
0.0
  0
LINE
  8
0
 62
     0
 10
38.577
 20
21.6614
 30
0.0
 11
52.5762
 21
21.6614
 31
0.0
  0
LINE
  8
0
 62
     0
 10
52.5762
 20
21.6614
 30
0.0
 11
52.5762
 21
7.6605
 31
0.0
  0
LINE
  8
0
 62
     0
 10
52.5762
 20
7.6605
 30
0.0
 11
38.577
 21
7.6605
 31
0.0
  0
LINE
  8
0
 62
     0
 10
38.577
 20
7.6605
 30
0.0
 11
38.577
 21
21.6614
 31
0.0
  0
LINE
  8
0
 62
     0
 10
12.3831
 20
21.6614
 30
0.0
 11
26.3826
 21
21.6614
 31
0.0
  0
LINE
  8
0
 62
     0
 10
26.3826
 20
21.6614
 30
0.0
 11
26.3826
 21
7.6605
 31
0.0
  0
LINE
  8
0
 62
     0
 10
26.3826
 20
7.6605
 30
0.0
 11
12.3831
 21
7.6605
 31
0.0
  0
LINE
  8
0
 62
     0
 10
12.3831
 20
7.6605
 30
0.0
 11
12.3831
 21
21.6614
 31
0.0
  0
LINE
  8
0
 62
     0
 10
257.652
 20
40.7099
 30
0.0
 11
257.652
 21
36.0094
 31
0.0
  0
LINE
  8
0
 62
     0
 10
257.652
 20
36.0094
 30
0.0
 11
256.126
 21
36.0094
 31
0.0
  0
LINE
  8
0
 62
     0
 10
256.126
 20
36.0094
 30
0.0
 11
256.126
 21
39.2395
 31
0.0
  0
LINE
  8
0
 62
     0
 10
256.126
 20
39.2395
 30
0.0
 11
254.401
 21
39.2395
 31
0.0
  0
LINE
  8
0
 62
     0
 10
254.401
 20
39.2395
 30
0.0
 11
254.401
 21
40.1616
 31
0.0
  0
LINE
  8
0
 62
     0
 10
254.401
 20
40.1616
 30
0.0
 11
251.101
 21
40.1616
 31
0.0
  0
LINE
  8
0
 62
     0
 10
251.101
 20
40.1616
 30
0.0
 11
251.101
 21
39.2395
 31
0.0
  0
LINE
  8
0
 62
     0
 10
251.101
 20
39.2395
 30
0.0
 11
249.377
 21
39.2395
 31
0.0
  0
LINE
  8
0
 62
     0
 10
249.377
 20
39.2395
 30
0.0
 11
249.377
 21
36.0094
 31
0.0
  0
LINE
  8
0
 62
     0
 10
249.377
 20
36.0094
 30
0.0
 11
248.551
 21
36.0094
 31
0.0
  0
LINE
  8
0
 62
     0
 10
248.551
 20
36.0094
 30
0.0
 11
248.551
 21
33.2107
 31
0.0
  0
LINE
  8
0
 62
     0
 10
248.551
 20
33.2107
 30
0.0
 11
249.377
 21
33.2107
 31
0.0
  0
LINE
  8
0
 62
     0
 10
249.377
 20
33.2107
 30
0.0
 11
249.377
 21
26.9407
 31
0.0
  0
LINE
  8
0
 62
     0
 10
249.377
 20
26.9407
 30
0.0
 11
251.101
 21
26.9407
 31
0.0
  0
LINE
  8
0
 62
     0
 10
251.101
 20
26.9407
 30
0.0
 11
251.101
 21
25.9595
 31
0.0
  0
LINE
  8
0
 62
     0
 10
251.101
 20
25.9595
 30
0.0
 11
254.401
 21
25.9595
 31
0.0
  0
LINE
  8
0
 62
     0
 10
254.401
 20
25.9595
 30
0.0
 11
254.401
 21
26.9407
 31
0.0
  0
LINE
  8
0
 62
     0
 10
254.401
 20
26.9407
 30
0.0
 11
256.126
 21
26.9407
 31
0.0
  0
LINE
  8
0
 62
     0
 10
256.126
 20
26.9407
 30
0.0
 11
256.126
 21
31.411
 31
0.0
  0
LINE
  8
0
 62
     0
 10
256.126
 20
31.411
 30
0.0
 11
257.652
 21
31.411
 31
0.0
  0
LINE
  8
0
 62
     0
 10
257.652
 20
31.411
 30
0.0
 11
257.652
 21
26.7105
 31
0.0
  0
LINE
  8
0
 62
     0
 10
257.652
 20
26.7105
 30
0.0
 11
271.651
 21
26.7105
 31
0.0
  0
LINE
  8
0
 62
     0
 10
271.651
 20
26.7105
 30
0.0
 11
271.651
 21
31.411
 31
0.0
  0
LINE
  8
0
 62
     0
 10
271.651
 20
31.411
 30
0.0
 11
273.177
 21
31.411
 31
0.0
  0
LINE
  8
0
 62
     0
 10
273.177
 20
31.411
 30
0.0
 11
273.177
 21
26.9407
 31
0.0
  0
LINE
  8
0
 62
     0
 10
273.177
 20
26.9407
 30
0.0
 11
274.902
 21
26.9407
 31
0.0
  0
LINE
  8
0
 62
     0
 10
274.902
 20
26.9407
 30
0.0
 11
274.902
 21
25.9595
 31
0.0
  0
LINE
  8
0
 62
     0
 10
274.902
 20
25.9595
 30
0.0
 11
278.201
 21
25.9595
 31
0.0
  0
LINE
  8
0
 62
     0
 10
278.201
 20
25.9595
 30
0.0
 11
278.201
 21
26.9407
 31
0.0
  0
LINE
  8
0
 62
     0
 10
278.201
 20
26.9407
 30
0.0
 11
279.926
 21
26.9407
 31
0.0
  0
LINE
  8
0
 62
     0
 10
279.926
 20
26.9407
 30
0.0
 11
279.926
 21
33.2107
 31
0.0
  0
LINE
  8
0
 62
     0
 10
279.926
 20
33.2107
 30
0.0
 11
280.752
 21
33.2107
 31
0.0
  0
LINE
  8
0
 62
     0
 10
280.752
 20
33.2107
 30
0.0
 11
280.752
 21
36.0094
 31
0.0
  0
LINE
  8
0
 62
     0
 10
280.752
 20
36.0094
 30
0.0
 11
279.926
 21
36.0094
 31
0.0
  0
LINE
  8
0
 62
     0
 10
279.926
 20
36.0094
 30
0.0
 11
279.926
 21
39.2395
 31
0.0
  0
LINE
  8
0
 62
     0
 10
279.926
 20
39.2395
 30
0.0
 11
278.201
 21
39.2395
 31
0.0
  0
LINE
  8
0
 62
     0
 10
278.201
 20
39.2395
 30
0.0
 11
278.201
 21
40.1616
 31
0.0
  0
LINE
  8
0
 62
     0
 10
278.201
 20
40.1616
 30
0.0
 11
274.902
 21
40.1616
 31
0.0
  0
LINE
  8
0
 62
     0
 10
274.902
 20
40.1616
 30
0.0
 11
274.902
 21
39.2395
 31
0.0
  0
LINE
  8
0
 62
     0
 10
274.902
 20
39.2395
 30
0.0
 11
273.177
 21
39.2395
 31
0.0
  0
LINE
  8
0
 62
     0
 10
273.177
 20
39.2395
 30
0.0
 11
273.177
 21
36.0094
 31
0.0
  0
LINE
  8
0
 62
     0
 10
273.177
 20
36.0094
 30
0.0
 11
271.651
 21
36.0094
 31
0.0
  0
LINE
  8
0
 62
     0
 10
271.651
 20
36.0094
 30
0.0
 11
271.651
 21
40.7099
 31
0.0
  0
LINE
  8
0
 62
     0
 10
271.651
 20
40.7099
 30
0.0
 11
257.652
 21
40.7099
 31
0.0
  0
LINE
  8
0
 62
     0
 10
19.5268
 20
40.7099
 30
0.0
 11
19.5268
 21
36.0094
 31
0.0
  0
LINE
  8
0
 62
     0
 10
19.5268
 20
36.0094
 30
0.0
 11
18.0013
 21
36.0094
 31
0.0
  0
LINE
  8
0
 62
     0
 10
18.0013
 20
36.0094
 30
0.0
 11
18.0013
 21
39.2395
 31
0.0
  0
LINE
  8
0
 62
     0
 10
18.0013
 20
39.2395
 30
0.0
 11
16.276
 21
39.2395
 31
0.0
  0
LINE
  8
0
 62
     0
 10
16.276
 20
39.2395
 30
0.0
 11
16.276
 21
40.1616
 31
0.0
  0
LINE
  8
0
 62
     0
 10
16.276
 20
40.1616
 30
0.0
 11
12.977
 21
40.1616
 31
0.0
  0
LINE
  8
0
 62
     0
 10
12.977
 20
40.1616
 30
0.0
 11
12.977
 21
39.2395
 31
0.0
  0
LINE
  8
0
 62
     0
 10
12.977
 20
39.2395
 30
0.0
 11
11.2503
 21
39.2395
 31
0.0
  0
LINE
  8
0
 62
     0
 10
11.2503
 20
39.2395
 30
0.0
 11
11.2503
 21
36.0094
 31
0.0
  0
LINE
  8
0
 62
     0
 10
11.2503
 20
36.0094
 30
0.0
 11
10.4262
 21
36.0094
 31
0.0
  0
LINE
  8
0
 62
     0
 10
10.4262
 20
36.0094
 30
0.0
 11
10.4262
 21
33.2107
 31
0.0
  0
LINE
  8
0
 62
     0
 10
10.4262
 20
33.2107
 30
0.0
 11
11.2503
 21
33.2107
 31
0.0
  0
LINE
  8
0
 62
     0
 10
11.2503
 20
33.2107
 30
0.0
 11
11.2503
 21
26.9407
 31
0.0
  0
LINE
  8
0
 62
     0
 10
11.2503
 20
26.9407
 30
0.0
 11
12.977
 21
26.9407
 31
0.0
  0
LINE
  8
0
 62
     0
 10
12.977
 20
26.9407
 30
0.0
 11
12.977
 21
25.9595
 31
0.0
  0
LINE
  8
0
 62
     0
 10
12.977
 20
25.9595
 30
0.0
 11
16.276
 21
25.9595
 31
0.0
  0
LINE
  8
0
 62
     0
 10
16.276
 20
25.9595
 30
0.0
 11
16.276
 21
26.9407
 31
0.0
  0
LINE
  8
0
 62
     0
 10
16.276
 20
26.9407
 30
0.0
 11
18.0013
 21
26.9407
 31
0.0
  0
LINE
  8
0
 62
     0
 10
18.0013
 20
26.9407
 30
0.0
 11
18.0013
 21
31.411
 31
0.0
  0
LINE
  8
0
 62
     0
 10
18.0013
 20
31.411
 30
0.0
 11
19.5268
 21
31.411
 31
0.0
  0
LINE
  8
0
 62
     0
 10
19.5268
 20
31.411
 30
0.0
 11
19.5268
 21
26.7105
 31
0.0
  0
LINE
  8
0
 62
     0
 10
19.5268
 20
26.7105
 30
0.0
 11
33.5263
 21
26.7105
 31
0.0
  0
LINE
  8
0
 62
     0
 10
33.5263
 20
26.7105
 30
0.0
 11
33.5263
 21
31.411
 31
0.0
  0
LINE
  8
0
 62
     0
 10
33.5263
 20
31.411
 30
0.0
 11
35.0518
 21
31.411
 31
0.0
  0
LINE
  8
0
 62
     0
 10
35.0518
 20
31.411
 30
0.0
 11
35.0518
 21
26.9407
 31
0.0
  0
LINE
  8
0
 62
     0
 10
35.0518
 20
26.9407
 30
0.0
 11
36.7771
 21
26.9407
 31
0.0
  0
LINE
  8
0
 62
     0
 10
36.7771
 20
26.9407
 30
0.0
 11
36.7771
 21
25.9595
 31
0.0
  0
LINE
  8
0
 62
     0
 10
36.7771
 20
25.9595
 30
0.0
 11
40.0763
 21
25.9595
 31
0.0
  0
LINE
  8
0
 62
     0
 10
40.0763
 20
25.9595
 30
0.0
 11
40.0763
 21
26.9407
 31
0.0
  0
LINE
  8
0
 62
     0
 10
40.0763
 20
26.9407
 30
0.0
 11
41.8013
 21
26.9407
 31
0.0
  0
LINE
  8
0
 62
     0
 10
41.8013
 20
26.9407
 30
0.0
 11
41.8013
 21
33.2107
 31
0.0
  0
LINE
  8
0
 62
     0
 10
41.8013
 20
33.2107
 30
0.0
 11
42.6268
 21
33.2107
 31
0.0
  0
LINE
  8
0
 62
     0
 10
42.6268
 20
33.2107
 30
0.0
 11
42.6268
 21
36.0094
 31
0.0
  0
LINE
  8
0
 62
     0
 10
42.6268
 20
36.0094
 30
0.0
 11
41.8013
 21
36.0094
 31
0.0
  0
LINE
  8
0
 62
     0
 10
41.8013
 20
36.0094
 30
0.0
 11
41.8013
 21
39.2395
 31
0.0
  0
LINE
  8
0
 62
     0
 10
41.8013
 20
39.2395
 30
0.0
 11
40.0763
 21
39.2395
 31
0.0
  0
LINE
  8
0
 62
     0
 10
40.0763
 20
39.2395
 30
0.0
 11
40.0763
 21
40.1616
 31
0.0
  0
LINE
  8
0
 62
     0
 10
40.0763
 20
40.1616
 30
0.0
 11
36.7771
 21
40.1616
 31
0.0
  0
LINE
  8
0
 62
     0
 10
36.7771
 20
40.1616
 30
0.0
 11
36.7771
 21
39.2395
 31
0.0
  0
LINE
  8
0
 62
     0
 10
36.7771
 20
39.2395
 30
0.0
 11
35.0518
 21
39.2395
 31
0.0
  0
LINE
  8
0
 62
     0
 10
35.0518
 20
39.2395
 30
0.0
 11
35.0518
 21
36.0094
 31
0.0
  0
LINE
  8
0
 62
     0
 10
35.0518
 20
36.0094
 30
0.0
 11
33.5263
 21
36.0094
 31
0.0
  0
LINE
  8
0
 62
     0
 10
33.5263
 20
36.0094
 30
0.0
 11
33.5263
 21
40.7099
 31
0.0
  0
LINE
  8
0
 62
     0
 10
33.5263
 20
40.7099
 30
0.0
 11
19.5268
 21
40.7099
 31
0.0
  0
LINE
  8
0
 62
     0
 10
221.933
 20
40.7099
 30
0.0
 11
235.932
 21
40.7099
 31
0.0
  0
LINE
  8
0
 62
     0
 10
235.932
 20
40.7099
 30
0.0
 11
235.932
 21
26.7105
 31
0.0
  0
LINE
  8
0
 62
     0
 10
235.932
 20
26.7105
 30
0.0
 11
221.933
 21
26.7105
 31
0.0
  0
LINE
  8
0
 62
     0
 10
221.933
 20
26.7105
 30
0.0
 11
221.933
 21
40.7099
 31
0.0
  0
LINE
  8
0
 62
     0
 10
202.883
 20
40.7099
 30
0.0
 11
216.882
 21
40.7099
 31
0.0
  0
LINE
  8
0
 62
     0
 10
216.882
 20
40.7099
 30
0.0
 11
216.882
 21
26.7105
 31
0.0
  0
LINE
  8
0
 62
     0
 10
216.882
 20
26.7105
 30
0.0
 11
202.883
 21
26.7105
 31
0.0
  0
LINE
  8
0
 62
     0
 10
202.883
 20
26.7105
 30
0.0
 11
202.883
 21
40.7099
 31
0.0
  0
LINE
  8
0
 62
     0
 10
183.833
 20
40.7099
 30
0.0
 11
197.832
 21
40.7099
 31
0.0
  0
LINE
  8
0
 62
     0
 10
197.832
 20
40.7099
 30
0.0
 11
197.832
 21
26.7105
 31
0.0
  0
LINE
  8
0
 62
     0
 10
197.832
 20
26.7105
 30
0.0
 11
183.833
 21
26.7105
 31
0.0
  0
LINE
  8
0
 62
     0
 10
183.833
 20
26.7105
 30
0.0
 11
183.833
 21
40.7099
 31
0.0
  0
LINE
  8
0
 62
     0
 10
164.783
 20
40.7099
 30
0.0
 11
178.782
 21
40.7099
 31
0.0
  0
LINE
  8
0
 62
     0
 10
178.782
 20
40.7099
 30
0.0
 11
178.782
 21
26.7105
 31
0.0
  0
LINE
  8
0
 62
     0
 10
178.782
 20
26.7105
 30
0.0
 11
164.783
 21
26.7105
 31
0.0
  0
LINE
  8
0
 62
     0
 10
164.783
 20
26.7105
 30
0.0
 11
164.783
 21
40.7099
 31
0.0
  0
LINE
  8
0
 62
     0
 10
145.733
 20
40.7099
 30
0.0
 11
159.732
 21
40.7099
 31
0.0
  0
LINE
  8
0
 62
     0
 10
159.732
 20
40.7099
 30
0.0
 11
159.732
 21
26.7105
 31
0.0
  0
LINE
  8
0
 62
     0
 10
159.732
 20
26.7105
 30
0.0
 11
145.733
 21
26.7105
 31
0.0
  0
LINE
  8
0
 62
     0
 10
145.733
 20
26.7105
 30
0.0
 11
145.733
 21
40.7099
 31
0.0
  0
LINE
  8
0
 62
     0
 10
126.683
 20
40.7099
 30
0.0
 11
140.682
 21
40.7099
 31
0.0
  0
LINE
  8
0
 62
     0
 10
140.682
 20
40.7099
 30
0.0
 11
140.682
 21
26.7105
 31
0.0
  0
LINE
  8
0
 62
     0
 10
140.682
 20
26.7105
 30
0.0
 11
126.683
 21
26.7105
 31
0.0
  0
LINE
  8
0
 62
     0
 10
126.683
 20
26.7105
 30
0.0
 11
126.683
 21
40.7099
 31
0.0
  0
LINE
  8
0
 62
     0
 10
107.633
 20
40.7099
 30
0.0
 11
121.632
 21
40.7099
 31
0.0
  0
LINE
  8
0
 62
     0
 10
121.632
 20
40.7099
 30
0.0
 11
121.632
 21
26.7105
 31
0.0
  0
LINE
  8
0
 62
     0
 10
121.632
 20
26.7105
 30
0.0
 11
107.633
 21
26.7105
 31
0.0
  0
LINE
  8
0
 62
     0
 10
107.633
 20
26.7105
 30
0.0
 11
107.633
 21
40.7099
 31
0.0
  0
LINE
  8
0
 62
     0
 10
88.5832
 20
40.7099
 30
0.0
 11
102.582
 21
40.7099
 31
0.0
  0
LINE
  8
0
 62
     0
 10
102.582
 20
40.7099
 30
0.0
 11
102.582
 21
26.7105
 31
0.0
  0
LINE
  8
0
 62
     0
 10
102.582
 20
26.7105
 30
0.0
 11
88.5832
 21
26.7105
 31
0.0
  0
LINE
  8
0
 62
     0
 10
88.5832
 20
26.7105
 30
0.0
 11
88.5832
 21
40.7099
 31
0.0
  0
LINE
  8
0
 62
     0
 10
69.5332
 20
40.7099
 30
0.0
 11
83.5325
 21
40.7099
 31
0.0
  0
LINE
  8
0
 62
     0
 10
83.5325
 20
40.7099
 30
0.0
 11
83.5325
 21
26.7105
 31
0.0
  0
LINE
  8
0
 62
     0
 10
83.5325
 20
26.7105
 30
0.0
 11
69.5332
 21
26.7105
 31
0.0
  0
LINE
  8
0
 62
     0
 10
69.5332
 20
26.7105
 30
0.0
 11
69.5332
 21
40.7099
 31
0.0
  0
LINE
  8
0
 62
     0
 10
50.4832
 20
40.7099
 30
0.0
 11
64.4825
 21
40.7099
 31
0.0
  0
LINE
  8
0
 62
     0
 10
64.4825
 20
40.7099
 30
0.0
 11
64.4825
 21
26.7105
 31
0.0
  0
LINE
  8
0
 62
     0
 10
64.4825
 20
26.7105
 30
0.0
 11
50.4832
 21
26.7105
 31
0.0
  0
LINE
  8
0
 62
     0
 10
50.4832
 20
26.7105
 30
0.0
 11
50.4832
 21
40.7099
 31
0.0
  0
LINE
  8
0
 62
     0
 10
262.413
 20
59.7598
 30
0.0
 11
262.413
 21
55.0594
 31
0.0
  0
LINE
  8
0
 62
     0
 10
262.413
 20
55.0594
 30
0.0
 11
260.889
 21
55.0594
 31
0.0
  0
LINE
  8
0
 62
     0
 10
260.889
 20
55.0594
 30
0.0
 11
260.889
 21
58.2895
 31
0.0
  0
LINE
  8
0
 62
     0
 10
260.889
 20
58.2895
 30
0.0
 11
259.164
 21
58.2895
 31
0.0
  0
LINE
  8
0
 62
     0
 10
259.164
 20
58.2895
 30
0.0
 11
259.164
 21
59.2102
 31
0.0
  0
LINE
  8
0
 62
     0
 10
259.164
 20
59.2102
 30
0.0
 11
255.863
 21
59.2102
 31
0.0
  0
LINE
  8
0
 62
     0
 10
255.863
 20
59.2102
 30
0.0
 11
255.863
 21
58.2895
 31
0.0
  0
LINE
  8
0
 62
     0
 10
255.863
 20
58.2895
 30
0.0
 11
254.138
 21
58.2895
 31
0.0
  0
LINE
  8
0
 62
     0
 10
254.138
 20
58.2895
 30
0.0
 11
254.138
 21
55.0594
 31
0.0
  0
LINE
  8
0
 62
     0
 10
254.138
 20
55.0594
 30
0.0
 11
253.314
 21
55.0594
 31
0.0
  0
LINE
  8
0
 62
     0
 10
253.314
 20
55.0594
 30
0.0
 11
253.314
 21
52.2609
 31
0.0
  0
LINE
  8
0
 62
     0
 10
253.314
 20
52.2609
 30
0.0
 11
254.138
 21
52.2609
 31
0.0
  0
LINE
  8
0
 62
     0
 10
254.138
 20
52.2609
 30
0.0
 11
254.138
 21
45.9906
 31
0.0
  0
LINE
  8
0
 62
     0
 10
254.138
 20
45.9906
 30
0.0
 11
255.863
 21
45.9906
 31
0.0
  0
LINE
  8
0
 62
     0
 10
255.863
 20
45.9906
 30
0.0
 11
255.863
 21
45.0095
 31
0.0
  0
LINE
  8
0
 62
     0
 10
255.863
 20
45.0095
 30
0.0
 11
259.164
 21
45.0095
 31
0.0
  0
LINE
  8
0
 62
     0
 10
259.164
 20
45.0095
 30
0.0
 11
259.164
 21
45.9906
 31
0.0
  0
LINE
  8
0
 62
     0
 10
259.164
 20
45.9906
 30
0.0
 11
260.889
 21
45.9906
 31
0.0
  0
LINE
  8
0
 62
     0
 10
260.889
 20
45.9906
 30
0.0
 11
260.889
 21
50.4596
 31
0.0
  0
LINE
  8
0
 62
     0
 10
260.889
 20
50.4596
 30
0.0
 11
262.413
 21
50.4596
 31
0.0
  0
LINE
  8
0
 62
     0
 10
262.413
 20
50.4596
 30
0.0
 11
262.413
 21
45.7606
 31
0.0
  0
LINE
  8
0
 62
     0
 10
262.413
 20
45.7606
 30
0.0
 11
276.414
 21
45.7606
 31
0.0
  0
LINE
  8
0
 62
     0
 10
276.414
 20
45.7606
 30
0.0
 11
276.414
 21
50.4596
 31
0.0
  0
LINE
  8
0
 62
     0
 10
276.414
 20
50.4596
 30
0.0
 11
277.938
 21
50.4596
 31
0.0
  0
LINE
  8
0
 62
     0
 10
277.938
 20
50.4596
 30
0.0
 11
277.938
 21
45.9906
 31
0.0
  0
LINE
  8
0
 62
     0
 10
277.938
 20
45.9906
 30
0.0
 11
279.663
 21
45.9906
 31
0.0
  0
LINE
  8
0
 62
     0
 10
279.663
 20
45.9906
 30
0.0
 11
279.663
 21
45.0095
 31
0.0
  0
LINE
  8
0
 62
     0
 10
279.663
 20
45.0095
 30
0.0
 11
282.964
 21
45.0095
 31
0.0
  0
LINE
  8
0
 62
     0
 10
282.964
 20
45.0095
 30
0.0
 11
282.964
 21
45.9906
 31
0.0
  0
LINE
  8
0
 62
     0
 10
282.964
 20
45.9906
 30
0.0
 11
284.689
 21
45.9906
 31
0.0
  0
LINE
  8
0
 62
     0
 10
284.689
 20
45.9906
 30
0.0
 11
284.689
 21
52.2609
 31
0.0
  0
LINE
  8
0
 62
     0
 10
284.689
 20
52.2609
 30
0.0
 11
285.513
 21
52.2609
 31
0.0
  0
LINE
  8
0
 62
     0
 10
285.513
 20
52.2609
 30
0.0
 11
285.513
 21
55.0594
 31
0.0
  0
LINE
  8
0
 62
     0
 10
285.513
 20
55.0594
 30
0.0
 11
284.689
 21
55.0594
 31
0.0
  0
LINE
  8
0
 62
     0
 10
284.689
 20
55.0594
 30
0.0
 11
284.689
 21
58.2895
 31
0.0
  0
LINE
  8
0
 62
     0
 10
284.689
 20
58.2895
 30
0.0
 11
282.964
 21
58.2895
 31
0.0
  0
LINE
  8
0
 62
     0
 10
282.964
 20
58.2895
 30
0.0
 11
282.964
 21
59.2102
 31
0.0
  0
LINE
  8
0
 62
     0
 10
282.964
 20
59.2102
 30
0.0
 11
279.663
 21
59.2102
 31
0.0
  0
LINE
  8
0
 62
     0
 10
279.663
 20
59.2102
 30
0.0
 11
279.663
 21
58.2895
 31
0.0
  0
LINE
  8
0
 62
     0
 10
279.663
 20
58.2895
 30
0.0
 11
277.938
 21
58.2895
 31
0.0
  0
LINE
  8
0
 62
     0
 10
277.938
 20
58.2895
 30
0.0
 11
277.938
 21
55.0594
 31
0.0
  0
LINE
  8
0
 62
     0
 10
277.938
 20
55.0594
 30
0.0
 11
276.414
 21
55.0594
 31
0.0
  0
LINE
  8
0
 62
     0
 10
276.414
 20
55.0594
 30
0.0
 11
276.414
 21
59.7598
 31
0.0
  0
LINE
  8
0
 62
     0
 10
276.414
 20
59.7598
 30
0.0
 11
262.413
 21
59.7598
 31
0.0
  0
LINE
  8
0
 62
     0
 10
231.458
 20
59.7598
 30
0.0
 11
245.457
 21
59.7598
 31
0.0
  0
LINE
  8
0
 62
     0
 10
245.457
 20
59.7598
 30
0.0
 11
245.457
 21
45.7606
 31
0.0
  0
LINE
  8
0
 62
     0
 10
245.457
 20
45.7606
 30
0.0
 11
231.458
 21
45.7606
 31
0.0
  0
LINE
  8
0
 62
     0
 10
231.458
 20
45.7606
 30
0.0
 11
231.458
 21
59.7598
 31
0.0
  0
LINE
  8
0
 62
     0
 10
212.408
 20
59.7598
 30
0.0
 11
226.407
 21
59.7598
 31
0.0
  0
LINE
  8
0
 62
     0
 10
226.407
 20
59.7598
 30
0.0
 11
226.407
 21
45.7606
 31
0.0
  0
LINE
  8
0
 62
     0
 10
226.407
 20
45.7606
 30
0.0
 11
212.408
 21
45.7606
 31
0.0
  0
LINE
  8
0
 62
     0
 10
212.408
 20
45.7606
 30
0.0
 11
212.408
 21
59.7598
 31
0.0
  0
LINE
  8
0
 62
     0
 10
193.358
 20
59.7598
 30
0.0
 11
207.357
 21
59.7598
 31
0.0
  0
LINE
  8
0
 62
     0
 10
207.357
 20
59.7598
 30
0.0
 11
207.357
 21
45.7606
 31
0.0
  0
LINE
  8
0
 62
     0
 10
207.357
 20
45.7606
 30
0.0
 11
193.358
 21
45.7606
 31
0.0
  0
LINE
  8
0
 62
     0
 10
193.358
 20
45.7606
 30
0.0
 11
193.358
 21
59.7598
 31
0.0
  0
LINE
  8
0
 62
     0
 10
174.308
 20
59.7598
 30
0.0
 11
188.307
 21
59.7598
 31
0.0
  0
LINE
  8
0
 62
     0
 10
188.307
 20
59.7598
 30
0.0
 11
188.307
 21
45.7606
 31
0.0
  0
LINE
  8
0
 62
     0
 10
188.307
 20
45.7606
 30
0.0
 11
174.308
 21
45.7606
 31
0.0
  0
LINE
  8
0
 62
     0
 10
174.308
 20
45.7606
 30
0.0
 11
174.308
 21
59.7598
 31
0.0
  0
LINE
  8
0
 62
     0
 10
155.258
 20
59.7598
 30
0.0
 11
169.257
 21
59.7598
 31
0.0
  0
LINE
  8
0
 62
     0
 10
169.257
 20
59.7598
 30
0.0
 11
169.257
 21
45.7606
 31
0.0
  0
LINE
  8
0
 62
     0
 10
169.257
 20
45.7606
 30
0.0
 11
155.258
 21
45.7606
 31
0.0
  0
LINE
  8
0
 62
     0
 10
155.258
 20
45.7606
 30
0.0
 11
155.258
 21
59.7598
 31
0.0
  0
LINE
  8
0
 62
     0
 10
136.208
 20
59.7598
 30
0.0
 11
150.207
 21
59.7598
 31
0.0
  0
LINE
  8
0
 62
     0
 10
150.207
 20
59.7598
 30
0.0
 11
150.207
 21
45.7606
 31
0.0
  0
LINE
  8
0
 62
     0
 10
150.207
 20
45.7606
 30
0.0
 11
136.208
 21
45.7606
 31
0.0
  0
LINE
  8
0
 62
     0
 10
136.208
 20
45.7606
 30
0.0
 11
136.208
 21
59.7598
 31
0.0
  0
LINE
  8
0
 62
     0
 10
117.158
 20
59.7598
 30
0.0
 11
131.157
 21
59.7598
 31
0.0
  0
LINE
  8
0
 62
     0
 10
131.157
 20
59.7598
 30
0.0
 11
131.157
 21
45.7606
 31
0.0
  0
LINE
  8
0
 62
     0
 10
131.157
 20
45.7606
 30
0.0
 11
117.158
 21
45.7606
 31
0.0
  0
LINE
  8
0
 62
     0
 10
117.158
 20
45.7606
 30
0.0
 11
117.158
 21
59.7598
 31
0.0
  0
LINE
  8
0
 62
     0
 10
98.1082
 20
59.7598
 30
0.0
 11
112.107
 21
59.7598
 31
0.0
  0
LINE
  8
0
 62
     0
 10
112.107
 20
59.7598
 30
0.0
 11
112.107
 21
45.7606
 31
0.0
  0
LINE
  8
0
 62
     0
 10
112.107
 20
45.7606
 30
0.0
 11
98.1082
 21
45.7606
 31
0.0
  0
LINE
  8
0
 62
     0
 10
98.1082
 20
45.7606
 30
0.0
 11
98.1082
 21
59.7598
 31
0.0
  0
LINE
  8
0
 62
     0
 10
79.0582
 20
59.7598
 30
0.0
 11
93.0575
 21
59.7598
 31
0.0
  0
LINE
  8
0
 62
     0
 10
93.0575
 20
59.7598
 30
0.0
 11
93.0575
 21
45.7606
 31
0.0
  0
LINE
  8
0
 62
     0
 10
93.0575
 20
45.7606
 30
0.0
 11
79.0582
 21
45.7606
 31
0.0
  0
LINE
  8
0
 62
     0
 10
79.0582
 20
45.7606
 30
0.0
 11
79.0582
 21
59.7598
 31
0.0
  0
LINE
  8
0
 62
     0
 10
60.0082
 20
59.7598
 30
0.0
 11
74.0075
 21
59.7598
 31
0.0
  0
LINE
  8
0
 62
     0
 10
74.0075
 20
59.7598
 30
0.0
 11
74.0075
 21
45.7606
 31
0.0
  0
LINE
  8
0
 62
     0
 10
74.0075
 20
45.7606
 30
0.0
 11
60.0082
 21
45.7606
 31
0.0
  0
LINE
  8
0
 62
     0
 10
60.0082
 20
45.7606
 30
0.0
 11
60.0082
 21
59.7598
 31
0.0
  0
LINE
  8
0
 62
     0
 10
40.9582
 20
59.7598
 30
0.0
 11
54.9575
 21
59.7598
 31
0.0
  0
LINE
  8
0
 62
     0
 10
54.9575
 20
59.7598
 30
0.0
 11
54.9575
 21
45.7606
 31
0.0
  0
LINE
  8
0
 62
     0
 10
54.9575
 20
45.7606
 30
0.0
 11
40.9582
 21
45.7606
 31
0.0
  0
LINE
  8
0
 62
     0
 10
40.9582
 20
45.7606
 30
0.0
 11
40.9582
 21
59.7598
 31
0.0
  0
LINE
  8
0
 62
     0
 10
14.7629
 20
59.7598
 30
0.0
 11
28.7638
 21
59.7598
 31
0.0
  0
LINE
  8
0
 62
     0
 10
28.7638
 20
59.7598
 30
0.0
 11
28.7638
 21
45.7606
 31
0.0
  0
LINE
  8
0
 62
     0
 10
28.7638
 20
45.7606
 30
0.0
 11
14.7629
 21
45.7606
 31
0.0
  0
LINE
  8
0
 62
     0
 10
14.7629
 20
45.7606
 30
0.0
 11
14.7629
 21
59.7598
 31
0.0
  0
LINE
  8
0
 62
     0
 10
269.558
 20
78.8098
 30
0.0
 11
283.557
 21
78.8098
 31
0.0
  0
LINE
  8
0
 62
     0
 10
283.557
 20
78.8098
 30
0.0
 11
283.557
 21
64.8106
 31
0.0
  0
LINE
  8
0
 62
     0
 10
283.557
 20
64.8106
 30
0.0
 11
269.558
 21
64.8106
 31
0.0
  0
LINE
  8
0
 62
     0
 10
269.558
 20
64.8106
 30
0.0
 11
269.558
 21
78.8098
 31
0.0
  0
LINE
  8
0
 62
     0
 10
245.746
 20
78.8098
 30
0.0
 11
259.745
 21
78.8098
 31
0.0
  0
LINE
  8
0
 62
     0
 10
259.745
 20
78.8098
 30
0.0
 11
259.745
 21
64.8106
 31
0.0
  0
LINE
  8
0
 62
     0
 10
259.745
 20
64.8106
 30
0.0
 11
245.746
 21
64.8106
 31
0.0
  0
LINE
  8
0
 62
     0
 10
245.746
 20
64.8106
 30
0.0
 11
245.746
 21
78.8098
 31
0.0
  0
LINE
  8
0
 62
     0
 10
226.696
 20
78.8098
 30
0.0
 11
240.695
 21
78.8098
 31
0.0
  0
LINE
  8
0
 62
     0
 10
240.695
 20
78.8098
 30
0.0
 11
240.695
 21
64.8106
 31
0.0
  0
LINE
  8
0
 62
     0
 10
240.695
 20
64.8106
 30
0.0
 11
226.696
 21
64.8106
 31
0.0
  0
LINE
  8
0
 62
     0
 10
226.696
 20
64.8106
 30
0.0
 11
226.696
 21
78.8098
 31
0.0
  0
LINE
  8
0
 62
     0
 10
207.646
 20
78.8098
 30
0.0
 11
221.645
 21
78.8098
 31
0.0
  0
LINE
  8
0
 62
     0
 10
221.645
 20
78.8098
 30
0.0
 11
221.645
 21
64.8106
 31
0.0
  0
LINE
  8
0
 62
     0
 10
221.645
 20
64.8106
 30
0.0
 11
207.646
 21
64.8106
 31
0.0
  0
LINE
  8
0
 62
     0
 10
207.646
 20
64.8106
 30
0.0
 11
207.646
 21
78.8098
 31
0.0
  0
LINE
  8
0
 62
     0
 10
188.596
 20
78.8098
 30
0.0
 11
202.595
 21
78.8098
 31
0.0
  0
LINE
  8
0
 62
     0
 10
202.595
 20
78.8098
 30
0.0
 11
202.595
 21
64.8106
 31
0.0
  0
LINE
  8
0
 62
     0
 10
202.595
 20
64.8106
 30
0.0
 11
188.596
 21
64.8106
 31
0.0
  0
LINE
  8
0
 62
     0
 10
188.596
 20
64.8106
 30
0.0
 11
188.596
 21
78.8098
 31
0.0
  0
LINE
  8
0
 62
     0
 10
169.546
 20
78.8098
 30
0.0
 11
183.545
 21
78.8098
 31
0.0
  0
LINE
  8
0
 62
     0
 10
183.545
 20
78.8098
 30
0.0
 11
183.545
 21
64.8106
 31
0.0
  0
LINE
  8
0
 62
     0
 10
183.545
 20
64.8106
 30
0.0
 11
169.546
 21
64.8106
 31
0.0
  0
LINE
  8
0
 62
     0
 10
169.546
 20
64.8106
 30
0.0
 11
169.546
 21
78.8098
 31
0.0
  0
LINE
  8
0
 62
     0
 10
150.496
 20
78.8098
 30
0.0
 11
164.495
 21
78.8098
 31
0.0
  0
LINE
  8
0
 62
     0
 10
164.495
 20
78.8098
 30
0.0
 11
164.495
 21
64.8106
 31
0.0
  0
LINE
  8
0
 62
     0
 10
164.495
 20
64.8106
 30
0.0
 11
150.496
 21
64.8106
 31
0.0
  0
LINE
  8
0
 62
     0
 10
150.496
 20
64.8106
 30
0.0
 11
150.496
 21
78.8098
 31
0.0
  0
LINE
  8
0
 62
     0
 10
131.446
 20
78.8098
 30
0.0
 11
145.445
 21
78.8098
 31
0.0
  0
LINE
  8
0
 62
     0
 10
145.445
 20
78.8098
 30
0.0
 11
145.445
 21
64.8106
 31
0.0
  0
LINE
  8
0
 62
     0
 10
145.445
 20
64.8106
 30
0.0
 11
131.446
 21
64.8106
 31
0.0
  0
LINE
  8
0
 62
     0
 10
131.446
 20
64.8106
 30
0.0
 11
131.446
 21
78.8098
 31
0.0
  0
LINE
  8
0
 62
     0
 10
112.396
 20
78.8098
 30
0.0
 11
126.395
 21
78.8098
 31
0.0
  0
LINE
  8
0
 62
     0
 10
126.395
 20
78.8098
 30
0.0
 11
126.395
 21
64.8106
 31
0.0
  0
LINE
  8
0
 62
     0
 10
126.395
 20
64.8106
 30
0.0
 11
112.396
 21
64.8106
 31
0.0
  0
LINE
  8
0
 62
     0
 10
112.396
 20
64.8106
 30
0.0
 11
112.396
 21
78.8098
 31
0.0
  0
LINE
  8
0
 62
     0
 10
93.3457
 20
78.8098
 30
0.0
 11
107.345
 21
78.8098
 31
0.0
  0
LINE
  8
0
 62
     0
 10
107.345
 20
78.8098
 30
0.0
 11
107.345
 21
64.8106
 31
0.0
  0
LINE
  8
0
 62
     0
 10
107.345
 20
64.8106
 30
0.0
 11
93.3457
 21
64.8106
 31
0.0
  0
LINE
  8
0
 62
     0
 10
93.3457
 20
64.8106
 30
0.0
 11
93.3457
 21
78.8098
 31
0.0
  0
LINE
  8
0
 62
     0
 10
74.2957
 20
78.8098
 30
0.0
 11
88.295
 21
78.8098
 31
0.0
  0
LINE
  8
0
 62
     0
 10
88.295
 20
78.8098
 30
0.0
 11
88.295
 21
64.8106
 31
0.0
  0
LINE
  8
0
 62
     0
 10
88.295
 20
64.8106
 30
0.0
 11
74.2957
 21
64.8106
 31
0.0
  0
LINE
  8
0
 62
     0
 10
74.2957
 20
64.8106
 30
0.0
 11
74.2957
 21
78.8098
 31
0.0
  0
LINE
  8
0
 62
     0
 10
55.2457
 20
78.8098
 30
0.0
 11
69.245
 21
78.8098
 31
0.0
  0
LINE
  8
0
 62
     0
 10
69.245
 20
78.8098
 30
0.0
 11
69.245
 21
64.8106
 31
0.0
  0
LINE
  8
0
 62
     0
 10
69.245
 20
64.8106
 30
0.0
 11
55.2457
 21
64.8106
 31
0.0
  0
LINE
  8
0
 62
     0
 10
55.2457
 20
64.8106
 30
0.0
 11
55.2457
 21
78.8098
 31
0.0
  0
LINE
  8
0
 62
     0
 10
36.1957
 20
78.8098
 30
0.0
 11
50.195
 21
78.8098
 31
0.0
  0
LINE
  8
0
 62
     0
 10
50.195
 20
78.8098
 30
0.0
 11
50.195
 21
64.8106
 31
0.0
  0
LINE
  8
0
 62
     0
 10
50.195
 20
64.8106
 30
0.0
 11
36.1957
 21
64.8106
 31
0.0
  0
LINE
  8
0
 62
     0
 10
36.1957
 20
64.8106
 30
0.0
 11
36.1957
 21
78.8098
 31
0.0
  0
LINE
  8
0
 62
     0
 10
12.3831
 20
78.8098
 30
0.0
 11
26.3826
 21
78.8098
 31
0.0
  0
LINE
  8
0
 62
     0
 10
26.3826
 20
78.8098
 30
0.0
 11
26.3826
 21
64.8106
 31
0.0
  0
LINE
  8
0
 62
     0
 10
26.3826
 20
64.8106
 30
0.0
 11
12.3831
 21
64.8106
 31
0.0
  0
LINE
  8
0
 62
     0
 10
12.3831
 20
64.8106
 30
0.0
 11
12.3831
 21
78.8098
 31
0.0
  0
LINE
  8
0
 62
     0
 10
264.796
 20
97.8599
 30
0.0
 11
264.796
 21
93.1594
 31
0.0
  0
LINE
  8
0
 62
     0
 10
264.796
 20
93.1594
 30
0.0
 11
263.27
 21
93.1594
 31
0.0
  0
LINE
  8
0
 62
     0
 10
263.27
 20
93.1594
 30
0.0
 11
263.27
 21
96.3895
 31
0.0
  0
LINE
  8
0
 62
     0
 10
263.27
 20
96.3895
 30
0.0
 11
261.546
 21
96.3895
 31
0.0
  0
LINE
  8
0
 62
     0
 10
261.546
 20
96.3895
 30
0.0
 11
261.546
 21
97.3102
 31
0.0
  0
LINE
  8
0
 62
     0
 10
261.546
 20
97.3102
 30
0.0
 11
258.246
 21
97.3102
 31
0.0
  0
LINE
  8
0
 62
     0
 10
258.246
 20
97.3102
 30
0.0
 11
258.246
 21
96.3895
 31
0.0
  0
LINE
  8
0
 62
     0
 10
258.246
 20
96.3895
 30
0.0
 11
256.521
 21
96.3895
 31
0.0
  0
LINE
  8
0
 62
     0
 10
256.521
 20
96.3895
 30
0.0
 11
256.521
 21
93.1594
 31
0.0
  0
LINE
  8
0
 62
     0
 10
256.521
 20
93.1594
 30
0.0
 11
255.695
 21
93.1594
 31
0.0
  0
LINE
  8
0
 62
     0
 10
255.695
 20
93.1594
 30
0.0
 11
255.695
 21
90.3609
 31
0.0
  0
LINE
  8
0
 62
     0
 10
255.695
 20
90.3609
 30
0.0
 11
256.521
 21
90.3609
 31
0.0
  0
LINE
  8
0
 62
     0
 10
256.521
 20
90.3609
 30
0.0
 11
256.521
 21
84.0906
 31
0.0
  0
LINE
  8
0
 62
     0
 10
256.521
 20
84.0906
 30
0.0
 11
258.246
 21
84.0906
 31
0.0
  0
LINE
  8
0
 62
     0
 10
258.246
 20
84.0906
 30
0.0
 11
258.246
 21
83.1095
 31
0.0
  0
LINE
  8
0
 62
     0
 10
258.246
 20
83.1095
 30
0.0
 11
261.546
 21
83.1095
 31
0.0
  0
LINE
  8
0
 62
     0
 10
261.546
 20
83.1095
 30
0.0
 11
261.546
 21
84.0906
 31
0.0
  0
LINE
  8
0
 62
     0
 10
261.546
 20
84.0906
 30
0.0
 11
263.27
 21
84.0906
 31
0.0
  0
LINE
  8
0
 62
     0
 10
263.27
 20
84.0906
 30
0.0
 11
263.27
 21
88.5596
 31
0.0
  0
LINE
  8
0
 62
     0
 10
263.27
 20
88.5596
 30
0.0
 11
264.796
 21
88.5596
 31
0.0
  0
LINE
  8
0
 62
     0
 10
264.796
 20
88.5596
 30
0.0
 11
264.796
 21
83.8606
 31
0.0
  0
LINE
  8
0
 62
     0
 10
264.796
 20
83.8606
 30
0.0
 11
278.795
 21
83.8606
 31
0.0
  0
LINE
  8
0
 62
     0
 10
278.795
 20
83.8606
 30
0.0
 11
278.795
 21
88.5596
 31
0.0
  0
LINE
  8
0
 62
     0
 10
278.795
 20
88.5596
 30
0.0
 11
280.32
 21
88.5596
 31
0.0
  0
LINE
  8
0
 62
     0
 10
280.32
 20
88.5596
 30
0.0
 11
280.32
 21
84.0906
 31
0.0
  0
LINE
  8
0
 62
     0
 10
280.32
 20
84.0906
 30
0.0
 11
282.046
 21
84.0906
 31
0.0
  0
LINE
  8
0
 62
     0
 10
282.046
 20
84.0906
 30
0.0
 11
282.046
 21
83.1095
 31
0.0
  0
LINE
  8
0
 62
     0
 10
282.046
 20
83.1095
 30
0.0
 11
285.345
 21
83.1095
 31
0.0
  0
LINE
  8
0
 62
     0
 10
285.345
 20
83.1095
 30
0.0
 11
285.345
 21
84.0906
 31
0.0
  0
LINE
  8
0
 62
     0
 10
285.345
 20
84.0906
 30
0.0
 11
287.07
 21
84.0906
 31
0.0
  0
LINE
  8
0
 62
     0
 10
287.07
 20
84.0906
 30
0.0
 11
287.07
 21
90.3609
 31
0.0
  0
LINE
  8
0
 62
     0
 10
287.07
 20
90.3609
 30
0.0
 11
287.896
 21
90.3609
 31
0.0
  0
LINE
  8
0
 62
     0
 10
287.896
 20
90.3609
 30
0.0
 11
287.896
 21
93.1594
 31
0.0
  0
LINE
  8
0
 62
     0
 10
287.896
 20
93.1594
 30
0.0
 11
287.07
 21
93.1594
 31
0.0
  0
LINE
  8
0
 62
     0
 10
287.07
 20
93.1594
 30
0.0
 11
287.07
 21
96.3895
 31
0.0
  0
LINE
  8
0
 62
     0
 10
287.07
 20
96.3895
 30
0.0
 11
285.345
 21
96.3895
 31
0.0
  0
LINE
  8
0
 62
     0
 10
285.345
 20
96.3895
 30
0.0
 11
285.345
 21
97.3102
 31
0.0
  0
LINE
  8
0
 62
     0
 10
285.345
 20
97.3102
 30
0.0
 11
282.046
 21
97.3102
 31
0.0
  0
LINE
  8
0
 62
     0
 10
282.046
 20
97.3102
 30
0.0
 11
282.046
 21
96.3895
 31
0.0
  0
LINE
  8
0
 62
     0
 10
282.046
 20
96.3895
 30
0.0
 11
280.32
 21
96.3895
 31
0.0
  0
LINE
  8
0
 62
     0
 10
280.32
 20
96.3895
 30
0.0
 11
280.32
 21
93.1594
 31
0.0
  0
LINE
  8
0
 62
     0
 10
280.32
 20
93.1594
 30
0.0
 11
278.795
 21
93.1594
 31
0.0
  0
LINE
  8
0
 62
     0
 10
278.795
 20
93.1594
 30
0.0
 11
278.795
 21
97.8599
 31
0.0
  0
LINE
  8
0
 62
     0
 10
278.795
 20
97.8599
 30
0.0
 11
264.796
 21
97.8599
 31
0.0
  0
LINE
  8
0
 62
     0
 10
236.221
 20
97.8599
 30
0.0
 11
250.22
 21
97.8599
 31
0.0
  0
LINE
  8
0
 62
     0
 10
250.22
 20
97.8599
 30
0.0
 11
250.22
 21
83.8606
 31
0.0
  0
LINE
  8
0
 62
     0
 10
250.22
 20
83.8606
 30
0.0
 11
236.221
 21
83.8606
 31
0.0
  0
LINE
  8
0
 62
     0
 10
236.221
 20
83.8606
 30
0.0
 11
236.221
 21
97.8599
 31
0.0
  0
LINE
  8
0
 62
     0
 10
217.171
 20
97.8599
 30
0.0
 11
231.17
 21
97.8599
 31
0.0
  0
LINE
  8
0
 62
     0
 10
231.17
 20
97.8599
 30
0.0
 11
231.17
 21
83.8606
 31
0.0
  0
LINE
  8
0
 62
     0
 10
231.17
 20
83.8606
 30
0.0
 11
217.171
 21
83.8606
 31
0.0
  0
LINE
  8
0
 62
     0
 10
217.171
 20
83.8606
 30
0.0
 11
217.171
 21
97.8599
 31
0.0
  0
LINE
  8
0
 62
     0
 10
198.121
 20
97.8599
 30
0.0
 11
212.12
 21
97.8599
 31
0.0
  0
LINE
  8
0
 62
     0
 10
212.12
 20
97.8599
 30
0.0
 11
212.12
 21
83.8606
 31
0.0
  0
LINE
  8
0
 62
     0
 10
212.12
 20
83.8606
 30
0.0
 11
198.121
 21
83.8606
 31
0.0
  0
LINE
  8
0
 62
     0
 10
198.121
 20
83.8606
 30
0.0
 11
198.121
 21
97.8599
 31
0.0
  0
LINE
  8
0
 62
     0
 10
179.071
 20
97.8599
 30
0.0
 11
193.07
 21
97.8599
 31
0.0
  0
LINE
  8
0
 62
     0
 10
193.07
 20
97.8599
 30
0.0
 11
193.07
 21
83.8606
 31
0.0
  0
LINE
  8
0
 62
     0
 10
193.07
 20
83.8606
 30
0.0
 11
179.071
 21
83.8606
 31
0.0
  0
LINE
  8
0
 62
     0
 10
179.071
 20
83.8606
 30
0.0
 11
179.071
 21
97.8599
 31
0.0
  0
LINE
  8
0
 62
     0
 10
160.021
 20
97.8599
 30
0.0
 11
174.02
 21
97.8599
 31
0.0
  0
LINE
  8
0
 62
     0
 10
174.02
 20
97.8599
 30
0.0
 11
174.02
 21
83.8606
 31
0.0
  0
LINE
  8
0
 62
     0
 10
174.02
 20
83.8606
 30
0.0
 11
160.021
 21
83.8606
 31
0.0
  0
LINE
  8
0
 62
     0
 10
160.021
 20
83.8606
 30
0.0
 11
160.021
 21
97.8599
 31
0.0
  0
LINE
  8
0
 62
     0
 10
140.971
 20
97.8599
 30
0.0
 11
154.97
 21
97.8599
 31
0.0
  0
LINE
  8
0
 62
     0
 10
154.97
 20
97.8599
 30
0.0
 11
154.97
 21
83.8606
 31
0.0
  0
LINE
  8
0
 62
     0
 10
154.97
 20
83.8606
 30
0.0
 11
140.971
 21
83.8606
 31
0.0
  0
LINE
  8
0
 62
     0
 10
140.971
 20
83.8606
 30
0.0
 11
140.971
 21
97.8599
 31
0.0
  0
LINE
  8
0
 62
     0
 10
121.919
 20
97.8599
 30
0.0
 11
135.92
 21
97.8599
 31
0.0
  0
LINE
  8
0
 62
     0
 10
135.92
 20
97.8599
 30
0.0
 11
135.92
 21
83.8606
 31
0.0
  0
LINE
  8
0
 62
     0
 10
135.92
 20
83.8606
 30
0.0
 11
121.919
 21
83.8606
 31
0.0
  0
LINE
  8
0
 62
     0
 10
121.919
 20
83.8606
 30
0.0
 11
121.919
 21
97.8599
 31
0.0
  0
LINE
  8
0
 62
     0
 10
102.869
 20
97.8599
 30
0.0
 11
116.87
 21
97.8599
 31
0.0
  0
LINE
  8
0
 62
     0
 10
116.87
 20
97.8599
 30
0.0
 11
116.87
 21
83.8606
 31
0.0
  0
LINE
  8
0
 62
     0
 10
116.87
 20
83.8606
 30
0.0
 11
102.869
 21
83.8606
 31
0.0
  0
LINE
  8
0
 62
     0
 10
102.869
 20
83.8606
 30
0.0
 11
102.869
 21
97.8599
 31
0.0
  0
LINE
  8
0
 62
     0
 10
83.8207
 20
97.8599
 30
0.0
 11
97.82
 21
97.8599
 31
0.0
  0
LINE
  8
0
 62
     0
 10
97.82
 20
97.8599
 30
0.0
 11
97.82
 21
83.8606
 31
0.0
  0
LINE
  8
0
 62
     0
 10
97.82
 20
83.8606
 30
0.0
 11
83.8207
 21
83.8606
 31
0.0
  0
LINE
  8
0
 62
     0
 10
83.8207
 20
83.8606
 30
0.0
 11
83.8207
 21
97.8599
 31
0.0
  0
LINE
  8
0
 62
     0
 10
64.7707
 20
97.8599
 30
0.0
 11
78.77
 21
97.8599
 31
0.0
  0
LINE
  8
0
 62
     0
 10
78.77
 20
97.8599
 30
0.0
 11
78.77
 21
83.8606
 31
0.0
  0
LINE
  8
0
 62
     0
 10
78.77
 20
83.8606
 30
0.0
 11
64.7707
 21
83.8606
 31
0.0
  0
LINE
  8
0
 62
     0
 10
64.7707
 20
83.8606
 30
0.0
 11
64.7707
 21
97.8599
 31
0.0
  0
LINE
  8
0
 62
     0
 10
45.7207
 20
97.8599
 30
0.0
 11
59.72
 21
97.8599
 31
0.0
  0
LINE
  8
0
 62
     0
 10
59.72
 20
97.8599
 30
0.0
 11
59.72
 21
83.8606
 31
0.0
  0
LINE
  8
0
 62
     0
 10
59.72
 20
83.8606
 30
0.0
 11
45.7207
 21
83.8606
 31
0.0
  0
LINE
  8
0
 62
     0
 10
45.7207
 20
83.8606
 30
0.0
 11
45.7207
 21
97.8599
 31
0.0
  0
LINE
  8
0
 62
     0
 10
26.6706
 20
97.8599
 30
0.0
 11
40.67
 21
97.8599
 31
0.0
  0
LINE
  8
0
 62
     0
 10
40.67
 20
97.8599
 30
0.0
 11
40.67
 21
83.8606
 31
0.0
  0
LINE
  8
0
 62
     0
 10
40.67
 20
83.8606
 30
0.0
 11
26.6706
 21
83.8606
 31
0.0
  0
LINE
  8
0
 62
     0
 10
26.6706
 20
83.8606
 30
0.0
 11
26.6706
 21
97.8599
 31
0.0
  0
LINE
  8
0
 62
     0
 10
7.61919
 20
97.8599
 30
0.0
 11
21.6201
 21
97.8599
 31
0.0
  0
LINE
  8
0
 62
     0
 10
21.6201
 20
97.8599
 30
0.0
 11
21.6201
 21
83.8606
 31
0.0
  0
LINE
  8
0
 62
     0
 10
21.6201
 20
83.8606
 30
0.0
 11
7.61919
 21
83.8606
 31
0.0
  0
LINE
  8
0
 62
     0
 10
7.61919
 20
83.8606
 30
0.0
 11
7.61919
 21
97.8599
 31
0.0
  0
LINE
  8
0
 62
     0
 10
217.171
 20
116.911
 30
0.0
 11
231.17
 21
116.911
 31
0.0
  0
LINE
  8
0
 62
     0
 10
231.17
 20
116.911
 30
0.0
 11
231.17
 21
102.911
 31
0.0
  0
LINE
  8
0
 62
     0
 10
231.17
 20
102.911
 30
0.0
 11
217.171
 21
102.911
 31
0.0
  0
LINE
  8
0
 62
     0
 10
217.171
 20
102.911
 30
0.0
 11
217.171
 21
116.911
 31
0.0
  0
ENDSEC
  0
EOF
